Coordinates
version=1
nRows=19
nColumns=33
inDegrees=yes

Units are S.I. units (second, meters, Newtons, ...)
Angles are in degrees.

endheader
time	ground_thorax_rot_x	ground_thorax_rot_y	ground_thorax_rot_z	ground_thorax_tx	ground_thorax_ty	ground_thorax_tz	clav_prot_r	clav_elev_r	scapula_abduction_r	scapula_elevation_r	scapula_upward_rot_r	scapula_winging_r	shoulder_elv_r	plane_of_elev_r	axial_rot_r	elbow_flexion_r	pro_sup_r	wrist_flex_r	wrist_dev_r	clav_prot_l	clav_elev_l	scapula_abduction_l	scapula_elevation_l	scapula_upward_rot_l	scapula_winging_l	shoulder_elv_l	plane_of_elev_l	axial_rot_l	elbow_flexion_l	pro_sup_l	wrist_flex_l	wrist_dev_l
      7.39000000	     25.75429414	     32.27929090	     44.52368125	     27.95597876	    763.04222238	    -34.61195790	     12.33061068	     35.87003244	     26.02472690	     45.00000000	    -45.00000000	  -3677.90971214	  -2449.22786810	     22.13774454	    179.99999979	   1805.46811837	   -173.50203151	     11.94153227	     13.58228396	    -13.64156847	    -45.00000000	    -33.90806041	     45.00000000	    -45.00000000	  -1701.19028570	  -1366.61157286	     23.19983140	     20.95082956	   1789.55679613	     41.08945420	     12.08906505	    -14.64577558
      7.40000000	     25.98979336	     32.16140507	     44.15817773	     25.48764988	    763.59425502	    -34.76949226	     12.28559714	     35.89998954	     26.02330772	     45.00000000	    -45.00000000	  -3678.06517273	  -2449.19140217	     22.27962872	    179.99999979	   1805.53854545	   -173.45129650	     12.02712910	     13.67565824	    -13.54332088	    -45.00000000	    -34.01592798	     45.00000000	    -45.00000000	  -1701.05519418	  -1366.55314613	     23.29288149	     21.07584853	   1789.49621731	     41.17230454	     12.13442167	    -14.76433133
      7.41000000	     26.05412208	     32.12704756	     43.94780325	     22.94259001	    764.19159469	    -34.93212655	     12.34421380	     35.81268869	     25.95949290	     45.00000000	    -45.00000000	  -3678.17591606	  -2449.13202817	     22.22886398	    179.99999979	   1805.51416218	   -173.40530189	     12.11052826	     13.68699195	    -13.44211468	    -45.00000000	    -34.08780979	     45.00000000	    -45.00000000	  -1700.97836689	  -1366.43627182	     23.25117871	     21.13968677	   1789.50905191	     41.26908472	     12.11998657	    -14.81029198
      7.42000000	     26.17405248	     32.07872607	     43.67729789	     20.33853310	    764.82861029	    -35.09737441	     12.30012441	     35.82336258	     25.95101775	     45.00000000	    -45.00000000	  -3678.35188278	  -2449.12038070	     22.21871512	    179.99999979	   1805.51765166	   -173.32575777	     12.20614292	     13.73490162	    -13.31169549	    -45.00000000	    -34.25191577	     45.00000000	    -45.00000000	  -1700.86410234	  -1366.32379241	     23.26370100	     21.24120689	   1789.51398756	     41.36919372	     12.12830213	    -14.89435937
      7.43000000	     26.27836594	     32.02584830	     43.47039896	     17.67147412	    765.50421208	    -35.26370675	     12.32523698	     35.75115357	     25.88272689	     45.00000000	    -45.00000000	  -3678.51031410	  -2449.07543066	     22.20424010	    179.99999979	   1805.44878510	   -173.23601031	     12.30872203	     13.77913694	    -13.19155913	    -45.00000000	    -34.35022199	     45.00000000	    -45.00000000	  -1700.75483712	  -1366.20936132	     23.25650092	     21.28670526	   1789.48965343	     41.47617575	     12.15004315	    -14.95378583
      7.44000000	     26.48640915	     31.90851938	     43.10784115	     14.94568170	    766.21576943	    -35.42887764	     12.25620337	     35.78470137	     25.92460873	     45.00000000	    -45.00000000	  -3678.71533456	  -2449.05621672	     22.25954938	    179.99999979	   1805.49988807	   -173.13741683	     12.38170633	     13.89601169	    -13.10808949	    -45.00000000	    -34.43289811	     45.00000000	    -45.00000000	  -1700.58983992	  -1366.13992949	     23.33710127	     21.43422385	   1789.47714538	     41.56870466	     12.22472418	    -15.07195871
      7.45000000	     26.60802102	     31.81964942	     42.85140639	     12.16728972	    766.96078489	    -35.59058726	     12.25783946	     35.74062619	     25.83305377	     45.00000000	    -45.00000000	  -3678.82861181	  -2448.98422576	     22.27777707	    179.99999979	   1805.49819847	   -173.03071745	     12.44473400	     13.96214604	    -12.96299179	    -45.00000000	    -34.56646489	     45.00000000	    -45.00000000	  -1700.48925179	  -1366.03978216	     23.35192633	     21.49295793	   1789.47764551	     41.65170583	     12.25823710	    -15.13782424
      7.46000000	     26.84639550	     31.62263792	     42.49851403	      9.34122560	    767.73836594	    -35.74717522	     12.19307673	     35.76837987	     25.86829352	     45.00000000	    -45.00000000	  -3678.99501901	  -2448.89739025	     22.39511979	    179.99999979	   1805.57393586	   -172.92635675	     12.48880493	     14.09125393	    -12.89563363	    -45.00000000	    -34.65718504	     45.00000000	    -45.00000000	  -1700.31776372	  -1366.01946030	     23.40455860	     21.58367138	   1789.46267179	     41.71907327	     12.34462056	    -15.25389151
      7.47000000	     26.94081666	     31.55495076	     42.27875339	      6.47194083	    768.54874605	    -35.89775339	     12.24714023	     35.66891862	     25.72562897	     45.00000000	    -45.00000000	  -3679.12122918	  -2448.83514535	     22.38392967	    179.99999979	   1805.51391378	   -172.84084902	     12.55424032	     14.12647847	    -12.72724842	    -45.00000000	    -34.75406506	     45.00000000	    -45.00000000	  -1700.22254671	  -1365.83900239	     23.38772835	     21.66675058	   1789.42874372	     41.78023454	     12.37514400	    -15.28520696
      7.48000000	     26.96866157	     31.54454387	     42.13190946	      3.56839862	    769.39209372	    -36.04211239	     12.31326961	     35.52906698	     25.56754743	     45.00000000	    -45.00000000	  -3679.22279732	  -2448.76586575	     22.30905247	    179.99999979	   1805.51089949	   -172.76381969	     12.60356794	     14.13652650	    -12.54298736	    -45.00000000	    -34.87039997	     45.00000000	    -45.00000000	  -1700.16609972	  -1365.65188353	     23.34599626	     21.58140325	   1789.36394612	     41.84069175	     12.38637097	    -15.28835270
      7.49000000	     27.28253798	     31.30284364	     41.71061669	      0.63974922	    770.26904709	    -36.18069455	     12.11585966	     35.71058694	     25.73454232	     45.00000000	    -45.00000000	  -3679.52551657	  -2448.77311964	     22.41047734	    179.99999979	   1805.53566410	   -172.67381517	     12.66306564	     14.31890896	    -12.55441837	    -45.00000000	    -34.94532991	     45.00000000	    -45.00000000	  -1699.90536547	  -1365.73172418	     23.46733777	     21.68001258	   1789.41741179	     41.87057520	     12.52817220	    -15.47730270
      7.50000000	     27.44589269	     31.14264328	     41.37131478	     -2.31277154	    771.18188758	    -36.31430075	     12.19486004	     35.57645014	     25.54677683	     45.00000000	    -45.00000000	  -3679.56783246	  -2448.61861148	     22.46677047	    179.99999979	   1805.51003729	   -172.60084704	     12.69863810	     14.38855773	    -12.39534197	    -45.00000000	    -35.05129742	     45.00000000	    -45.00000000	  -1699.84306187	  -1365.59555397	     23.46913336	     21.79920461	   1789.39526494	     41.89980507	     12.56666221	    -15.52101409
      7.51000000	     27.60066514	     31.01653504	     41.09917232	     -5.28172766	    772.13077159	    -36.44337206	     12.15793331	     35.59542118	     25.52543083	     45.00000000	    -45.00000000	  -3679.77833885	  -2448.61021221	     22.49799612	    179.99999979	   1805.55018366	   -172.53191980	     12.73212863	     14.44063310	    -12.30803724	    -45.00000000	    -35.11418556	     45.00000000	    -45.00000000	  -1699.69828854	  -1365.49245020	     23.50021921	     21.77794205	   1789.38089173	     41.92967267	     12.61911321	    -15.58615048
      7.52000000	     27.64172873	     30.91443039	     40.92283589	     -8.26551948	    773.11649762	    -36.56786267	     12.20150764	     35.46024043	     25.43734254	     45.00000000	    -45.00000000	  -3679.84146813	  -2448.55741647	     22.42068039	    179.99999979	   1805.61393420	   -172.45291389	     12.74901839	     14.47535341	    -12.15633151	    -45.00000000	    -35.25804203	     45.00000000	    -45.00000000	  -1699.60447719	  -1365.29641541	     23.46114732	     21.71876582	   1789.32036654	     41.96514162	     12.65105782	    -15.60412201
      7.53000000	     27.81473600	     30.73645645	     40.62150376	    -11.25904439	    774.13798783	    -36.68708627	     12.13102930	     35.49401263	     25.42903105	     45.00000000	    -45.00000000	  -3680.03429309	  -2448.52085654	     22.46057281	    179.99999979	   1805.63705627	   -172.35465731	     12.78922439	     14.54079719	    -12.07024725	    -45.00000000	    -35.34501041	     45.00000000	    -45.00000000	  -1699.44989300	  -1365.22627221	     23.49270169	     21.67715165	   1789.31628738	     41.99494642	     12.71867379	    -15.68825940
      7.54000000	     27.96276147	     30.57523838	     40.33800791	    -14.26156351	    775.19468552	    -36.79990096	     12.13610245	     35.43138985	     25.34524157	     45.00000000	    -45.00000000	  -3680.16634138	  -2448.43118611	     22.48700372	    179.99999979	   1805.64237040	   -172.24966259	     12.82751988	     14.59261629	    -11.94296713	    -45.00000000	    -35.46267519	     45.00000000	    -45.00000000	  -1699.32189809	  -1365.11887368	     23.49690654	     21.65848884	   1789.29780568	     42.02578244	     12.77069739	    -15.74857968
      7.55000000	     28.14424111	     30.39382509	     40.05051203	    -17.26822346	    776.28476029	    -36.90512400	     12.09300173	     35.43398141	     25.32195489	     45.00000000	    -45.00000000	  -3680.35589282	  -2448.33961135	     22.53421964	    179.99999979	   1805.63861799	   -172.14400591	     12.87424870	     14.64120939	    -11.84386789	    -45.00000000	    -35.55724663	     45.00000000	    -45.00000000	  -1699.16193048	  -1365.04684808	     23.50755919	     21.64021553	   1789.31463405	     42.05301079	     12.82426802	    -15.83108185
      7.56000000	     28.28645727	     30.22930496	     39.77467949	    -20.27796378	    777.40806713	    -37.00182515	     12.08534149	     35.38987289	     25.25246068	     45.00000000	    -45.00000000	  -3680.49128810	  -2448.25325321	     22.54351012	    179.99999979	   1805.64221929	   -172.03727046	     12.91594898	     14.67519541	    -11.71596467	    -45.00000000	    -35.69433671	     45.00000000	    -45.00000000	  -1699.04727983	  -1364.93372712	     23.50782656	     21.62231723	   1789.32327203	     42.08314791	     12.85967282	    -15.89203576
      7.57000000	     28.52216753	     30.05092198	     39.38488329	    -23.27877334	    778.56196318	    -37.08952946	     12.02708236	     35.42623595	     25.16121234	     45.00000000	    -45.00000000	  -3680.72387090	  -2448.12228418	     22.69521321	    179.99999979	   1805.65839965	   -171.93243550	     12.95251754	     14.76307657	    -11.60699434	    -45.00000000	    -35.79214025	     45.00000000	    -45.00000000	  -1698.85127506	  -1364.96793085	     23.60178028	     21.61341886	   1789.35321958	     42.11271587	     12.94527061	    -16.02123616
